<?xml version="1.0" encoding="UTF-8" standalone="no"?>
<svg
   xmlns:dc="http://purl.org/dc/elements/1.1/"
   xmlns:cc="http://creativecommons.org/ns#"
   xmlns:rdf="http://www.w3.org/1999/02/22-rdf-syntax-ns#"
   xmlns:svg="http://www.w3.org/2000/svg"
   xmlns="http://www.w3.org/2000/svg"
   id="svg8"
   version="1.1"
   viewBox="0 0 210 297"
   height="297mm"
   width="210mm">
  <defs
     id="defs2" />
  <metadata
     id="metadata5">
    <rdf:RDF>
      <cc:Work
         rdf:about="">
        <dc:format>image/svg+xml</dc:format>
        <dc:type
           rdf:resource="http://purl.org/dc/dcmitype/StillImage" />
        <dc:title></dc:title>
      </cc:Work>
    </rdf:RDF>
  </metadata>
  <g
     id="layer1">
    <path
       id="rect3713"
       d="M 111.83245,24.709307 A 30.201457,30.201457 0 0 0 81.950554,50.76353 H 45.73416 v 8.294584 h 36.218976 a 30.201457,30.201457 0 0 0 29.879314,26.054224 30.201457,30.201457 0 0 0 29.8819,-26.054224 h 36.2169 V 50.76353 H 141.71228 A 30.201457,30.201457 0 0 0 111.83245,24.709307 Z m 0,12.161015 a 18.708868,18.040695 0 0 1 18.18907,13.910263 18.708868,18.040695 0 0 1 0.31678,1.616437 18.708868,18.040695 0 0 1 0.0522,0.41393 18.708868,18.040695 0 0 1 0.12402,1.364255 18.708868,18.040695 0 0 1 0.0269,0.735357 18.708868,18.040695 0 0 1 -0.51987,4.138766 18.708868,18.040695 0 0 1 -0.002,0.0088 18.708868,18.040695 0 0 1 -18.187,13.89321 18.708868,18.040695 0 0 1 -18.184937,-13.89321 18.708868,18.040695 0 0 1 -0.001,-0.0062 18.708868,18.040695 0 0 1 -0.319876,-1.626775 18.708868,18.040695 0 0 1 -0.05271,-0.416512 18.708868,18.040695 0 0 1 -0.122989,-1.358056 18.708868,18.040695 0 0 1 -0.02687,-0.740008 18.708868,18.040695 0 0 1 0.520899,-4.142383 18.708868,18.040695 0 0 1 0.001,-0.0047 18.708868,18.040695 0 0 1 18.186493,-13.893208 z"
       style="stroke-width:0.20918369" />
  </g>
</svg>
